<?xml version="1.0" encoding="utf-8"?>
<!-- Generator: Adobe Illustrator 16.0.0, SVG Export Plug-In . SVG Version: 6.00 Build 0)  -->
<!DOCTYPE svg PUBLIC "-//W3C//DTD SVG 1.1//EN" "http://www.w3.org/Graphics/SVG/1.1/DTD/svg11.dtd">
<svg version="1.1" id="Layer_1" xmlns="http://www.w3.org/2000/svg" xmlns:xlink="http://www.w3.org/1999/xlink" x="0px" y="0px"
	 width="50.262px" height="47.95px" viewBox="0 0 50.262 47.95" enable-background="new 0 0 50.262 47.95" xml:space="preserve">
<g>
	<path fill-rule="evenodd" clip-rule="evenodd" d="M42.725,13.062c-3.863-4.761-8.244-8.698-14.557-9.944
		C16.154,0.747,3.752,9.325,2.912,22.162c-0.206,3.145,0.003,6.241,1.169,9.225c0.337,0.861,1.312,1.939-0.334,2.541
		c-1.685,0.615-1.87-0.748-2.288-1.811c-3.322-8.469-0.825-19.117,6.002-25.562c11.491-10.847,30.305-7.828,37.653,6.051
		c0.533,1.007,1.252,1.979,0.997,3.239C43.941,16.186,43.359,14.593,42.725,13.062z"/>
	<path fill-rule="evenodd" clip-rule="evenodd" fill="#668CDB" d="M45.437,17.375c0.743,1.269,2.093,1.776,3.234,2.53
		c0.674,0.444,1.51,0.697,1.572,1.664c0.029,0.446,0.051,0.971-0.151,1.334c-0.322,0.582-0.816,0.073-1.173-0.064
		c-2.532-0.967-4.596-2.606-6.489-4.517c-1.704-1.721-3.264-3.606-5.339-4.927c-2.283-1.454-3.814-1.29-5.357,0.861
		c-1.273,1.775-2.452,3.65-3.421,5.605c-4.88,9.853-13.432,14.88-23.437,18.044c-0.543,0.17-1.118,0.324-1.68,0.336
		c-0.801,0.018-1.27-0.557-1.417-1.264c-0.165-0.795,0.6-0.877,1.091-1.066c2.256-0.873,4.537-1.686,6.794-2.557
		c7.312-2.826,12.768-7.717,16.391-14.679c0.955-1.837,1.963-3.666,3.142-5.363c2.872-4.136,6.428-4.583,10.314-1.411
		c0.801,0.654,1.564,1.354,2.345,2.033C43.627,14.481,44.737,15.715,45.437,17.375z"/>
	<path fill-rule="evenodd" clip-rule="evenodd" d="M22.07,47.95c-4.553-0.09-10.104-2.35-14.747-6.77
		c-0.539-0.514-1.919-1.119-0.808-2.078c0.67-0.578,1.873-1.004,2.757,0.154c0.345,0.453,0.833,0.805,1.284,1.166
		c12.789,10.279,31.574,3.145,34.329-13.037c0.136-0.797,0.233-1.605,0.411-2.393c0.132-0.592-0.32-1.677,0.598-1.646
		c0.986,0.033,2.209,0.569,2.045,1.891c-0.24,1.943-0.434,3.893-1.031,5.799C43.738,41.139,34.532,47.959,22.07,47.95z"/>
	<path fill-rule="evenodd" clip-rule="evenodd" fill="#F5C669" d="M42.014,22.239c1.199,1.193,2.457,2.377,0.681,4.068
		c-1.079-0.041-1.988-0.596-2.961-0.969c-0.407-0.225-0.779-0.498-1.142-0.787c-3.838-2.3-4.966-2.022-7.957,1.982
		c-0.979,1.443-2.133,2.711-3.623,3.646c-1.003,0.695-2.099,1.227-3.2,1.744c-2.334,1.039-4.25,2.869-6.762,3.572
		c-0.792,0.359-0.884-0.074-0.803-0.707c5.765-3.221,9.836-8.227,13.931-13.21c0.433-0.774,0.945-1.469,1.805-1.824
		c0.325-0.149,0.666-0.241,1.021-0.29c1.74,0.479,3.505-0.541,5.245,0.072C39.675,20.197,41.333,20.539,42.014,22.239z"/>
	<path fill-rule="evenodd" clip-rule="evenodd" fill="#F56667" d="M23.894,15.832c0.599,0.182,1.444,0.106,1.352,1.089
		c-0.079,0.837-0.563,1.421-1.35,1.752c-0.86,0.361-2.041-0.485-2.676,0.712c-0.021,1.615-1.114,2.537-2.226,3.448
		c-0.552,0.23-1.039,0.629-1.167,1.172c-1.23,5.226-5.365,6.753-9.868,7.832c0.404-2.854,2.438-4.229,4.809-5.299
		c1.032-1.254,2.237-2.424,2.077-4.258c0.4-3.617,2.409-5.903,5.817-7.038C21.828,14.955,22.854,15.434,23.894,15.832z"/>
	<path fill-rule="evenodd" clip-rule="evenodd" fill="#F56667" d="M34.254,29.844c-1.323-0.99-2.518-2.109-3.479-3.463
		c1.472-2.947,2.091-3.148,4.388-1.311c0.892,0.713,1.688,1.547,2.672,2.145c0.946,0.859,2.312,1.297,2.733,2.689
		c0.51,0.818,2.182,1.043,1.233,2.611c-0.799,1.32-1.666,0.664-2.616,0.291c-0.395-0.156-0.89-0.053-1.34-0.066
		c-0.63,0.119-0.892-0.143-0.798-0.771C36.469,30.797,35.583,30.03,34.254,29.844z"/>
	<path fill-rule="evenodd" clip-rule="evenodd" fill="#F5C66A" d="M16.248,34.79c0.268,0.236,0.535,0.471,0.803,0.707
		c-0.072,0.09-0.125,0.213-0.217,0.268c-1.363,0.805-2.744,1.561-4.405,1.475C13.163,35.583,14.93,35.536,16.248,34.79z"/>
</g>
</svg>
